# xmcd
#
# Track frame offsets: 
#        150
#        26199
#        52669
#        81992
#        100868
#        134420
#        164927
#        195319
#        218978
#        241096
#        262726
#        281628
#        313690
#        331365
#
# Disc length: 4802 seconds
#
# Revision: 2
# Processed by: cddbd v1.5.2PL0 Copyright (c) Steve Scherf et al.
# Submitted via: ExactAudioCopy v0.95a5
#
DISCID=c612c00e
DTITLE=Various Artist - Blues Instrumental  CD-2 
DYEAR=2001
DGENRE=Blues
TTITLE0=Down for You - PETER GARSTENAUER
TTITLE1=At the Feet of the Master - JON BUTCHER
TTITLE2=Duke's Mood - DUKE ROBILLARD
TTITLE3=The Hunk - TINSLEY ELLIS
TTITLE4=Beyond Cool - LUCKY PETERSON
TTITLE5=Shame On You - JAN AKKERMAN
TTITLE6=Street of Dreams - CRAIG ERICKSON
TTITLE7=Holdin' Out - INDIGINOUS
TTITLE8=Through the Eyes of Love - WALTER TROUT
TTITLE9=Del Sur - VARGAS BLUES BAND
TTITLE10=Sally Jo - SUNSET HEIGHTS
TTITLE11=Midnight Flow - PETER GARSTENAUER
TTITLE12=Chitlins Con Carne - STEVIE RAY VAUGHAN
TTITLE13=Sleep Walk - GREGOR HILDEN
EXTD=
EXTT0=
EXTT1=
EXTT2=
EXTT3=
EXTT4=
EXTT5=
EXTT6=
EXTT7=
EXTT8=
EXTT9=
EXTT10=
EXTT11=
EXTT12=
EXTT13=
PLAYORDER=
